<?xml version="1.0" standalone="no"?>
<!DOCTYPE svg PUBLIC "-//W3C//DTD SVG 20010904//EN"
 "http://www.w3.org/TR/2001/REC-SVG-20010904/DTD/svg10.dtd">
<svg version="1.0" xmlns="http://www.w3.org/2000/svg"
 width="512.000000pt" height="512.000000pt" viewBox="0 0 512.000000 512.000000"
 preserveAspectRatio="xMidYMid meet">
<metadata>
Created by potrace 1.11, written by Peter Selinger 2001-2013
</metadata>
<g transform="translate(0.000000,512.000000) scale(0.100000,-0.100000)"
fill="#000000" stroke="none">
<path d="M2510 4825 c-104 -24 -186 -70 -266 -149 -144 -144 -195 -332 -144
-530 48 -189 193 -335 385 -392 84 -24 229 -22 316 5 168 53 320 210 364 377
21 79 21 228 0 301 -50 174 -186 316 -356 373 -82 28 -213 35 -299 15z"/>
<path d="M1200 4222 c-157 -52 -283 -179 -330 -331 -27 -86 -27 -217 0 -303
46 -151 168 -277 315 -328 332 -115 678 136 674 489 -2 187 -119 364 -299 450
-71 34 -81 36 -190 38 -89 2 -127 -1 -170 -15z"/>
<path d="M3812 3944 c-139 -69 -174 -238 -74 -354 48 -57 98 -80 172 -80 68 0
110 14 157 54 72 61 98 189 55 273 -61 118 -194 165 -310 107z"/>
<path d="M693 2905 c-83 -23 -152 -63 -214 -124 -228 -228 -158 -604 139 -744
64 -30 73 -32 187 -32 115 0 123 1 187 33 295 144 363 513 138 743 -114 116
-285 165 -437 124z"/>
<path d="M4397 2730 c-128 -32 -211 -139 -211 -275 0 -59 4 -79 29 -124 96
-174 320 -204 450 -59 98 109 98 260 0 376 -53 64 -182 103 -268 82z"/>
<path d="M1235 1577 c-118 -39 -207 -117 -258 -225 -30 -63 -32 -74 -32 -177
0 -105 2 -113 34 -177 104 -207 352 -293 557 -193 29 14 77 50 107 79 170 168
165 436 -12 598 -84 77 -145 102 -261 105 -59 2 -110 -2 -135 -10z"/>
<path d="M3805 1483 c-226 -81 -287 -362 -116 -534 240 -240 638 15 528 338
-23 67 -94 146 -161 180 -68 35 -178 42 -251 16z"/>
<path d="M2547 989 c-95 -22 -200 -106 -245 -195 -92 -181 -11 -410 177 -501
49 -24 69 -27 151 -28 82 0 103 4 152 27 79 37 142 98 181 177 29 60 32 74 32
161 0 88 -3 101 -33 162 -33 68 -96 134 -157 166 -74 38 -176 50 -258 31z"/>
</g>
</svg>
